<svg xmlns="http://www.w3.org/2000/svg" version="1.1" viewBox="60.65 154.22 377.22 191.41">
<g id="#030303ff">
<path fill="#030303" opacity="1.00" d=" M 303.19 303.51 C 304.30 302.69 305.88 304.54 304.76 305.45 C 303.64 306.27 302.07 304.42 303.19 303.51 Z"/>
<path fill="#030303" opacity="1.00" d=" M 304.20 309.54 C 305.31 308.68 306.89 310.53 305.81 311.46 C 304.70 312.31 303.12 310.46 304.20 309.54 Z"/>
</g>
<g id="#ffffffff">
<path fill="#ffffff" opacity="1.00" d=" M 192.21 154.23 C 193.44 154.23 194.67 154.22 195.91 154.22 C 196.34 194.23 196.08 234.27 196.04 274.29 C 194.74 274.27 193.43 274.25 192.13 274.24 C 192.16 234.23 192.01 194.23 192.21 154.23 Z"/>
<path fill="#ffffff" opacity="1.00" d=" M 146.04 285.04 C 215.35 284.98 284.65 284.97 353.96 285.04 C 353.93 305.23 354.14 325.44 353.85 345.63 C 284.62 345.53 215.38 345.54 146.15 345.63 C 145.86 325.44 146.06 305.23 146.04 285.04 M 308.98 309.02 C 307.89 308.51 306.81 308.00 305.73 307.50 C 306.74 308.53 307.75 309.56 308.76 310.60 C 311.64 305.96 312.65 300.23 316.40 296.18 C 315.72 301.96 313.17 307.26 310.94 312.56 C 310.04 312.64 309.15 312.71 308.26 312.79 C 308.31 313.36 308.40 314.50 308.45 315.07 C 309.66 314.17 311.23 313.50 311.77 311.97 C 314.84 304.95 317.59 297.61 317.99 289.88 C 314.68 296.11 312.25 302.76 308.98 309.02 M 324.39 291.40 C 321.25 296.83 319.54 302.94 316.93 308.63 C 316.09 310.59 314.99 312.51 314.69 314.65 C 315.03 316.08 316.13 317.16 316.95 318.33 C 319.66 317.93 322.53 318.85 325.13 318.18 C 329.03 313.10 330.91 306.70 332.92 300.68 C 331.20 303.48 329.81 306.46 328.64 309.52 C 327.43 312.45 326.49 315.91 323.34 317.33 C 323.89 314.96 324.74 312.66 325.10 310.25 C 325.88 308.77 326.64 307.29 327.42 305.81 C 329.28 302.23 330.57 298.40 331.71 294.55 C 332.47 296.48 333.17 298.43 333.92 300.37 C 334.28 297.52 333.63 294.57 331.32 292.69 C 329.62 290.94 326.12 288.30 324.39 291.40 M 294.99 293.02 C 296.52 297.20 298.51 301.19 300.63 305.10 C 300.95 300.28 298.19 296.31 294.99 293.02 M 166.21 303.24 C 166.12 311.14 166.17 319.04 166.17 326.95 C 170.95 326.74 176.70 328.16 180.65 324.74 C 183.61 321.62 181.94 317.02 178.79 314.80 C 180.95 312.13 182.67 307.99 179.78 305.17 C 175.98 302.17 170.68 303.53 166.21 303.24 M 227.24 303.23 C 227.10 311.09 227.16 318.96 227.18 326.83 C 230.74 326.53 234.29 327.33 237.83 327.04 C 244.74 324.71 245.02 313.38 238.60 310.29 C 236.15 309.08 233.45 310.26 230.97 310.74 C 230.92 308.21 230.86 305.69 230.79 303.16 C 229.60 303.18 228.42 303.20 227.24 303.23 M 303.19 303.51 C 302.07 304.42 303.64 306.27 304.76 305.45 C 305.88 304.54 304.30 302.69 303.19 303.51 M 302.15 306.26 C 300.34 309.04 305.49 306.70 302.15 306.26 M 304.20 309.54 C 303.12 310.46 304.70 312.31 305.81 311.46 C 306.89 310.53 305.31 308.68 304.20 309.54 M 188.62 310.65 C 187.10 310.95 186.31 312.34 187.16 313.73 C 190.54 313.64 193.90 312.94 197.29 313.42 C 197.45 314.04 197.79 315.26 197.95 315.87 C 194.20 316.37 189.74 315.96 186.83 318.85 C 184.45 321.08 185.34 325.61 188.38 326.80 C 190.63 327.94 193.11 326.85 195.41 326.49 C 197.46 325.95 199.53 326.73 201.57 326.98 C 201.40 322.34 202.20 317.53 200.97 313.00 C 198.54 308.77 192.60 309.15 188.62 310.65 M 205.95 310.02 C 205.99 310.76 206.06 312.25 206.10 312.99 C 207.32 313.21 208.54 313.42 209.77 313.64 C 209.85 316.88 209.85 320.13 209.78 323.38 C 208.54 323.59 207.32 323.82 206.09 324.05 C 206.06 324.77 205.99 326.22 205.95 326.94 C 209.74 327.04 213.53 327.04 217.32 326.93 C 217.33 326.26 217.36 324.90 217.37 324.22 C 216.14 323.77 214.91 323.32 213.68 322.87 C 213.76 320.25 213.15 317.18 215.07 315.04 C 217.12 313.09 220.23 313.68 222.81 313.48 C 223.20 312.30 223.58 311.12 223.97 309.95 C 222.03 309.86 220.05 309.51 218.13 309.94 C 216.20 310.61 214.84 312.22 213.39 313.57 C 213.39 312.39 213.38 311.21 213.36 310.04 C 210.89 310.02 208.42 310.02 205.95 310.02 M 248.13 323.90 C 251.64 328.56 258.64 328.12 263.04 325.00 C 262.61 324.12 262.19 323.25 261.77 322.38 C 259.06 323.14 256.23 324.52 253.38 323.69 C 251.62 323.31 251.08 321.43 250.18 320.13 C 254.96 319.89 259.74 320.00 264.51 319.91 C 264.59 314.64 260.76 309.08 255.00 309.65 C 247.85 309.28 243.90 318.54 248.13 323.90 M 266.95 310.02 C 266.99 310.76 267.06 312.25 267.10 312.99 C 268.32 313.21 269.54 313.42 270.77 313.63 C 270.85 316.88 270.85 320.13 270.78 323.38 C 269.54 323.59 268.32 323.82 267.09 324.04 C 267.06 324.77 266.99 326.22 266.96 326.94 C 270.74 327.04 274.53 327.04 278.32 326.93 C 278.33 326.26 278.36 324.90 278.37 324.23 C 277.14 323.77 275.91 323.32 274.68 322.86 C 274.76 320.24 274.15 317.18 276.07 315.04 C 278.13 313.09 281.23 313.68 283.81 313.48 C 284.20 312.30 284.58 311.12 284.97 309.94 C 283.03 309.86 281.05 309.52 279.13 309.94 C 277.20 310.61 275.84 312.22 274.39 313.57 C 274.38 312.39 274.37 311.21 274.36 310.04 C 271.89 310.02 269.42 310.02 266.95 310.02 M 303.61 320.48 C 300.69 320.94 297.69 320.16 294.73 320.32 C 297.71 320.89 300.75 321.21 303.76 321.62 C 304.99 319.16 306.16 316.67 307.09 314.09 C 305.86 316.18 304.89 318.41 303.61 320.48 M 300.52 332.46 C 297.54 335.71 290.52 334.81 289.92 329.92 C 290.42 326.81 292.38 324.20 293.67 321.39 C 290.57 324.09 287.41 328.89 290.13 332.88 C 292.72 336.55 298.21 336.20 301.18 333.21 C 305.33 329.00 306.83 323.04 309.32 317.84 C 310.20 318.57 311.09 319.31 311.98 320.06 C 309.42 326.84 305.00 333.06 304.34 340.45 C 306.03 340.62 307.76 341.02 309.45 340.58 C 314.76 339.53 314.98 332.98 318.16 329.51 C 318.49 332.46 317.76 335.35 317.09 338.20 C 318.98 334.96 321.15 330.72 318.76 327.15 C 315.97 323.22 312.54 319.78 309.53 316.02 C 306.22 321.33 304.85 327.80 300.52 332.46 M 313.28 316.26 C 313.78 316.79 313.78 316.79 313.28 316.26 M 321.57 327.69 C 322.79 331.11 326.87 330.76 329.80 330.78 C 329.64 328.78 329.81 326.67 329.06 324.78 C 328.16 323.37 326.71 322.46 325.47 321.42 C 327.90 323.88 329.71 326.85 329.49 330.45 C 327.25 330.05 324.68 330.38 322.81 328.85 C 321.64 326.57 323.26 324.09 323.54 321.77 C 322.79 323.69 321.60 325.58 321.57 327.69 M 330.41 321.81 C 331.34 325.01 333.64 328.94 330.90 331.90 C 327.95 334.58 323.99 332.40 320.82 331.43 C 323.86 333.30 328.25 335.20 331.30 332.29 C 334.10 329.21 332.34 324.84 330.41 321.81 M 291.77 330.89 C 293.06 327.67 294.99 324.79 297.58 322.48 C 294.21 324.08 292.31 327.28 291.77 330.89 M 299.48 322.22 C 299.87 324.12 301.57 326.25 300.28 328.13 C 298.68 330.41 296.06 331.64 293.89 333.28 C 297.40 332.60 300.99 330.60 301.76 326.81 C 302.49 324.82 300.66 323.48 299.48 322.22 M 314.17 338.94 C 313.96 339.23 313.53 339.83 313.32 340.12 C 314.09 343.24 317.48 338.26 314.17 338.94 Z"/>
<path fill="#ffffff" opacity="1.00" d=" M 169.93 306.56 C 172.31 306.67 174.69 306.86 177.05 307.14 C 177.23 308.80 177.40 310.45 177.57 312.12 C 175.10 312.95 172.52 313.30 169.93 313.32 C 169.92 311.07 169.92 308.81 169.93 306.56 Z"/>
<path fill="#ffffff" opacity="1.00" d=" M 231.38 313.39 C 233.51 313.36 236.07 312.50 237.82 314.15 C 240.02 316.45 240.03 320.55 237.85 322.87 C 236.09 324.55 233.51 323.65 231.38 323.61 C 230.74 320.23 230.74 316.76 231.38 313.39 Z"/>
<path fill="#ffffff" opacity="1.00" d=" M 249.87 316.53 C 251.43 314.74 253.26 312.56 255.94 313.07 C 258.10 313.04 259.28 314.93 260.33 316.51 C 256.84 316.71 253.35 316.70 249.87 316.53 Z"/>
<path fill="#ffffff" opacity="1.00" d=" M 169.87 316.59 C 172.62 316.78 176.00 316.01 178.13 318.25 C 178.71 319.83 178.58 321.99 176.96 322.92 C 174.80 323.80 172.39 323.61 170.11 323.83 C 170.00 321.42 169.93 319.00 169.87 316.59 Z"/>
<path fill="#ffffff" opacity="1.00" d=" M 189.28 321.23 C 191.45 318.69 195.18 319.56 198.12 319.37 C 197.57 321.21 196.83 323.34 194.64 323.70 C 192.73 324.44 188.39 324.20 189.28 321.23 Z"/>
</g>
<g id="#f28b1eff">
<path fill="#f28b1e" opacity="1.00" d=" M 87.44 155.41 C 94.39 155.35 101.35 155.20 108.30 155.56 C 109.48 160.59 113.67 163.86 118.15 165.90 C 122.23 166.72 126.45 165.85 130.53 166.66 C 133.03 167.16 134.77 169.54 134.87 172.03 C 135.58 180.34 134.86 188.70 135.11 197.03 C 135.12 198.43 135.41 199.86 136.36 200.95 C 136.89 201.67 137.42 202.40 137.97 203.12 C 135.17 207.65 132.19 212.07 129.11 216.42 C 128.83 215.81 128.27 214.57 127.99 213.96 C 130.08 210.65 132.20 207.09 132.33 203.06 C 132.64 197.05 132.22 191.02 132.38 185.00 C 132.36 180.73 132.75 176.40 132.00 172.17 C 131.43 167.97 126.06 168.75 122.96 168.51 C 117.86 167.54 115.13 173.63 110.10 172.84 C 101.70 172.72 93.29 172.80 84.89 172.82 C 80.62 173.33 78.16 168.70 74.08 168.57 C 70.98 168.44 67.70 168.44 64.84 169.77 C 62.79 171.03 63.45 173.88 63.15 175.92 C 63.23 201.61 63.20 227.31 63.19 253.00 C 63.24 257.59 62.84 262.22 63.42 266.79 C 63.67 268.88 65.71 270.01 67.01 271.45 C 65.93 271.66 64.86 271.86 63.78 272.05 C 60.91 271.07 60.71 267.61 60.65 265.06 C 60.70 235.03 60.70 204.99 60.65 174.95 C 60.66 172.06 60.96 168.46 63.87 166.97 C 68.09 165.69 72.61 166.79 76.92 166.00 C 81.67 164.06 86.10 160.60 87.44 155.41 M 88.38 158.32 C 88.39 159.38 88.41 160.45 88.42 161.51 C 94.57 161.77 100.71 161.72 106.86 161.66 C 106.89 160.46 106.92 159.26 106.96 158.06 C 100.78 157.54 94.53 157.32 88.38 158.32 M 82.51 164.58 C 82.33 166.41 82.16 168.24 81.99 170.08 C 92.47 170.68 102.99 170.51 113.48 170.18 C 113.28 168.28 113.02 166.39 112.70 164.51 C 102.65 164.16 92.56 164.03 82.51 164.58 Z"/>
</g>
<g id="#ef871dff">
<path fill="#ef871d" opacity="1.00" d=" M 394.41 155.49 C 397.14 155.09 399.92 155.38 402.66 155.50 C 403.19 162.75 400.39 169.67 399.69 176.82 C 399.02 176.84 397.67 176.87 396.99 176.89 C 395.44 171.53 394.24 166.06 393.40 160.54 C 393.16 158.81 392.78 156.69 394.41 155.49 Z"/>
<path fill="#ef871d" opacity="1.00" d=" M 409.71 164.97 C 409.98 160.49 414.71 157.59 418.94 158.30 C 425.05 158.86 433.52 156.06 437.21 162.65 C 438.04 166.94 437.62 171.36 437.87 175.70 C 434.65 175.74 431.43 175.74 428.22 175.72 C 428.18 173.07 428.13 170.42 428.06 167.77 C 425.12 167.54 422.17 167.58 419.25 167.92 C 418.86 172.28 418.87 176.66 419.29 181.01 C 423.68 181.60 428.13 181.17 432.52 181.68 C 435.46 182.76 437.88 185.72 437.60 188.98 C 437.63 194.66 437.65 200.34 437.59 206.02 C 437.83 210.01 433.94 213.50 430.06 213.36 C 425.69 213.51 421.32 213.56 416.96 213.30 C 414.06 213.24 411.46 211.23 410.18 208.73 C 409.16 204.61 409.60 200.29 409.35 196.09 C 412.73 195.90 416.13 195.89 419.52 196.07 C 419.58 198.71 418.44 201.84 420.22 204.10 C 422.77 204.70 425.40 204.25 427.97 204.06 C 428.51 199.67 428.51 195.24 428.21 190.83 C 424.16 190.18 420.05 190.41 415.97 190.16 C 412.43 189.95 409.52 186.57 409.66 183.06 C 409.53 177.03 409.46 170.99 409.71 164.97 Z"/>
<path fill="#ef871d" opacity="1.00" d=" M 282.75 218.71 C 286.02 218.58 289.31 218.58 292.59 218.70 C 291.17 229.75 292.04 240.90 291.81 252.00 C 291.72 258.94 291.66 265.90 292.59 272.79 C 289.33 272.87 286.06 272.90 282.80 272.89 C 282.64 254.84 282.74 236.77 282.75 218.71 Z"/>
</g>
<g id="#120b05ff">
<path fill="#120b05" opacity="1.00" d=" M 321.57 327.69 C 321.60 325.58 322.79 323.69 323.54 321.77 C 323.26 324.09 321.64 326.57 322.81 328.85 C 324.68 330.38 327.25 330.05 329.49 330.45 C 329.71 326.85 327.90 323.88 325.47 321.42 C 326.71 322.46 328.16 323.37 329.06 324.78 C 329.81 326.67 329.64 328.78 329.80 330.78 C 326.87 330.76 322.79 331.11 321.57 327.69 Z"/>
</g>
<g id="#f0871dff">
<path fill="#f0871d" opacity="1.00" d=" M 214.38 158.35 C 221.60 158.39 228.82 158.26 236.03 158.35 C 240.04 158.02 242.84 162.28 242.53 165.95 C 242.53 172.32 242.59 178.69 242.50 185.06 C 242.51 188.19 240.21 190.59 238.61 193.06 C 239.72 199.85 241.66 206.46 242.98 213.20 C 239.78 213.44 236.57 213.40 233.38 213.09 C 232.40 206.20 230.91 199.40 229.22 192.66 C 227.85 192.49 226.48 192.32 225.11 192.15 C 224.09 199.11 224.75 206.14 224.70 213.14 C 221.50 213.41 218.29 213.43 215.09 213.24 C 215.77 199.84 215.24 186.41 215.46 173.00 C 215.60 168.09 215.29 163.18 214.38 158.35 M 224.41 167.99 C 224.38 173.00 224.37 178.00 224.40 183.00 C 227.46 183.43 230.57 183.44 233.64 183.04 C 233.70 178.03 233.69 173.01 233.62 167.99 C 230.57 167.52 227.46 167.52 224.41 167.99 Z"/>
<path fill="#f0871d" opacity="1.00" d=" M 254.50 158.68 C 259.96 157.93 265.53 158.36 271.03 158.38 C 274.92 158.24 278.16 162.13 277.68 165.93 C 277.62 179.29 277.66 192.66 277.66 206.03 C 277.95 210.07 273.95 213.47 270.06 213.35 C 265.70 213.51 261.32 213.56 256.96 213.30 C 254.08 213.25 251.64 211.08 250.37 208.64 C 249.53 205.84 249.81 202.87 249.76 199.99 C 249.95 188.64 249.68 177.28 249.84 165.93 C 249.67 162.81 251.77 159.99 254.50 158.68 M 259.23 167.93 C 258.70 179.95 258.65 192.02 259.28 204.03 C 262.16 204.08 265.97 205.52 268.08 202.81 C 268.90 197.25 268.27 191.60 268.41 186.00 C 268.26 180.37 268.87 174.71 268.15 169.11 C 266.26 166.15 262.12 168.03 259.23 167.93 Z"/>
<path fill="#f0871d" opacity="1.00" d=" M 289.47 158.64 C 294.61 157.97 299.84 158.35 305.02 158.36 C 307.82 158.13 310.30 160.03 311.54 162.42 C 312.60 166.75 312.29 171.26 312.73 175.67 C 309.30 175.72 305.88 175.71 302.46 175.67 C 302.71 172.89 302.81 170.10 302.80 167.32 C 299.92 167.19 297.05 167.20 294.18 167.31 C 293.15 172.82 293.59 178.43 293.58 184.00 C 293.65 190.67 293.20 197.37 293.98 204.01 C 296.93 204.31 299.91 204.32 302.87 204.01 C 302.80 201.34 302.68 198.68 302.49 196.02 C 305.92 195.84 309.36 195.83 312.79 196.01 C 312.26 200.49 312.64 205.11 311.43 209.48 C 308.72 214.28 302.64 213.40 298.00 213.47 C 294.26 213.19 289.66 214.30 286.80 211.20 C 284.15 208.91 284.64 205.13 284.55 202.00 C 284.73 189.98 284.54 177.96 284.62 165.95 C 284.37 162.75 286.65 159.88 289.47 158.64 Z"/>
<path fill="#f0871d" opacity="1.00" d=" M 365.50 158.40 C 369.13 158.28 372.77 158.28 376.40 158.37 C 376.80 164.76 378.38 170.98 379.83 177.20 C 382.32 189.29 385.54 201.21 388.38 213.21 C 385.29 213.40 382.19 213.39 379.11 213.18 C 378.46 209.47 377.57 205.81 376.66 202.16 C 373.02 201.61 368.97 200.63 365.52 202.38 C 364.08 205.81 363.57 209.52 362.88 213.14 C 359.79 213.40 356.68 213.41 353.59 213.21 C 354.68 206.94 356.53 200.83 357.73 194.58 C 360.12 182.48 364.86 170.82 365.50 158.40 M 370.66 175.72 C 369.27 181.14 368.26 186.64 367.17 192.12 C 369.37 192.45 371.59 192.64 373.81 192.75 C 374.38 186.92 372.90 181.06 370.66 175.72 Z"/>
<path fill="#f0871d" opacity="1.00" d=" M 214.50 225.94 C 214.19 222.62 216.55 219.08 220.00 218.75 C 224.67 218.37 229.38 218.52 234.07 218.61 C 236.94 218.48 239.91 219.99 241.20 222.61 C 241.92 226.90 241.89 231.30 242.61 235.60 C 239.19 235.61 235.78 235.60 232.38 235.57 C 232.60 232.79 232.52 230.00 232.06 227.26 C 229.21 227.31 226.36 227.38 223.52 227.49 C 223.16 239.62 223.45 251.76 223.35 263.89 C 226.47 264.27 229.61 264.28 232.73 263.89 C 232.62 261.34 232.51 258.79 232.38 256.24 C 235.76 256.21 239.14 256.21 242.53 256.24 C 241.72 260.78 242.14 265.54 240.84 269.97 C 239.30 273.40 235.09 272.79 232.02 272.89 C 227.47 272.75 222.88 273.23 218.38 272.51 C 215.37 271.42 214.21 268.00 214.46 265.04 C 214.56 252.01 214.48 238.97 214.50 225.94 Z"/>
<path fill="#f0871d" opacity="1.00" d=" M 249.30 218.70 C 252.52 218.58 255.74 218.59 258.97 218.72 C 258.59 233.80 258.43 248.92 258.98 263.99 C 265.25 264.57 271.54 264.17 277.83 264.20 C 277.37 266.99 276.86 269.77 276.37 272.55 C 267.40 273.19 258.40 272.67 249.42 272.86 C 249.86 263.25 249.60 253.62 249.66 244.00 C 249.59 235.57 249.92 227.12 249.30 218.70 Z"/>
<path fill="#f0871d" opacity="1.00" d=" M 333.17 218.74 C 336.14 218.62 339.11 218.60 342.08 218.66 C 347.34 228.87 350.60 239.99 355.75 250.26 C 356.32 239.76 356.52 229.18 355.44 218.71 C 358.87 218.56 362.30 218.57 365.72 218.76 C 364.81 227.48 365.30 236.25 365.20 245.00 C 365.30 254.28 364.87 263.57 365.61 272.84 C 362.45 272.87 359.29 272.87 356.13 272.84 C 353.53 267.32 351.40 261.60 348.98 256.00 C 346.77 250.97 345.47 245.53 342.51 240.84 C 342.28 251.48 342.15 262.15 342.70 272.78 C 339.34 272.86 335.98 272.89 332.61 272.90 C 333.23 268.96 333.47 264.98 333.41 261.00 C 333.23 246.91 333.58 232.82 333.17 218.74 Z"/>
<path fill="#f0871d" opacity="1.00" d=" M 372.00 218.81 C 381.69 218.49 391.40 218.39 401.09 218.87 C 402.21 221.95 402.78 225.19 402.93 228.47 C 399.25 227.73 395.50 227.52 391.75 227.71 C 391.27 235.46 391.61 243.24 391.53 251.00 C 391.66 258.30 390.96 265.67 392.36 272.89 C 388.69 272.89 385.02 272.86 381.36 272.73 C 383.44 260.94 381.91 248.90 382.45 237.01 C 382.08 234.00 383.43 230.07 380.88 227.82 C 377.30 227.17 373.68 227.94 370.15 228.47 C 370.66 225.23 371.27 222.01 372.00 218.81 Z"/>
</g>
<g id="#f0881dff">
<path fill="#f0881d" opacity="1.00" d=" M 337.60 158.21 C 341.28 158.27 344.96 158.31 348.64 158.39 C 347.73 163.21 347.39 168.11 347.54 173.01 C 347.76 186.42 347.22 199.84 347.92 213.24 C 344.69 213.42 341.46 213.40 338.24 213.16 C 338.35 205.71 338.50 198.25 338.33 190.79 C 335.44 189.92 332.43 189.88 329.48 190.42 C 329.01 198.03 329.57 205.65 329.24 213.27 C 326.08 213.39 322.93 213.39 319.77 213.25 C 320.61 201.18 320.13 189.09 320.27 177.00 C 320.37 170.88 320.18 164.75 319.72 158.64 C 322.90 158.50 326.09 158.50 329.28 158.63 C 329.46 166.01 329.17 173.39 329.34 180.77 C 332.24 180.83 335.13 180.85 338.03 180.83 C 338.65 173.30 338.74 165.69 337.60 158.21 Z"/>
<path fill="#f0881d" opacity="1.00" d=" M 299.90 218.76 C 308.87 218.57 317.86 218.31 326.81 218.91 C 327.18 221.69 327.54 224.48 327.90 227.27 C 321.77 227.53 315.64 227.19 309.52 227.50 C 309.18 231.92 309.18 236.36 309.47 240.78 C 312.41 240.95 315.37 240.89 318.29 240.48 C 318.41 243.83 318.40 247.19 318.25 250.54 C 315.29 250.39 312.32 250.31 309.36 250.26 C 309.24 254.79 309.24 259.32 309.35 263.85 C 315.57 264.63 321.87 264.40 328.07 263.57 C 327.67 266.62 327.23 269.67 326.74 272.72 C 317.64 272.96 308.54 272.81 299.44 272.80 C 300.78 265.94 300.35 258.94 300.36 252.00 C 300.20 240.92 300.80 229.82 299.90 218.76 Z"/>
</g>
<g id="#e4811cff">
<path fill="#e4811c" opacity="1.00" d=" M 155.31 170.27 C 160.02 163.00 172.81 167.17 173.55 175.37 C 173.55 177.92 172.52 180.34 172.37 182.87 C 172.88 185.50 175.11 188.03 174.00 190.77 C 172.60 194.23 170.24 197.17 168.27 200.30 C 166.57 202.65 165.22 205.86 161.96 206.25 C 163.61 199.43 169.71 194.86 171.72 188.26 C 171.03 187.42 170.25 186.68 169.49 185.92 C 164.43 192.78 160.45 200.40 154.93 206.92 C 149.41 213.91 145.19 221.81 140.03 229.05 C 138.35 231.65 134.78 233.41 135.17 236.93 C 135.08 245.97 135.26 255.01 135.19 264.05 C 135.03 266.52 135.19 269.41 133.34 271.34 C 131.76 273.07 129.19 272.81 127.07 272.97 C 110.05 272.94 93.02 272.92 76.00 272.96 C 71.92 272.92 67.70 273.47 63.78 272.05 C 64.86 271.86 65.93 271.66 67.01 271.45 C 70.95 270.63 74.99 270.49 79.00 270.55 C 94.02 270.71 109.05 270.49 124.07 270.70 C 126.48 270.48 129.43 271.05 131.36 269.26 C 132.41 267.02 132.33 264.46 132.42 262.04 C 132.35 254.39 132.46 246.74 132.18 239.09 C 127.47 240.72 122.84 242.58 118.33 244.68 C 121.06 245.60 123.79 246.58 126.42 247.78 C 122.97 248.26 119.49 248.51 116.00 248.47 C 102.99 248.35 89.98 248.36 76.97 248.49 C 74.33 248.40 71.24 248.79 69.43 246.43 C 81.56 244.95 93.82 246.35 106.00 245.77 C 109.43 245.97 111.07 242.48 112.63 240.03 C 113.28 240.75 113.93 241.47 114.60 242.17 C 119.04 241.81 123.12 239.77 127.10 237.95 C 130.09 236.77 131.29 233.64 132.64 231.01 C 130.25 229.28 127.78 227.64 125.25 226.12 C 122.88 229.34 120.55 232.60 118.40 235.98 C 118.12 234.95 117.85 233.93 117.57 232.91 C 119.35 229.83 120.94 226.65 122.31 223.37 C 104.96 222.72 87.58 223.79 70.23 222.89 C 70.22 222.26 70.20 221.00 70.19 220.37 C 86.81 220.23 103.45 220.53 120.07 220.29 C 124.00 220.52 126.02 216.70 127.99 213.96 C 128.27 214.57 128.83 215.81 129.11 216.42 C 127.90 218.47 126.91 220.63 125.92 222.78 C 129.03 225.28 132.41 227.44 136.00 229.19 C 142.06 221.51 147.07 213.06 152.22 204.76 C 149.17 201.98 145.70 199.72 141.96 197.98 C 140.60 199.67 139.23 201.35 137.97 203.12 C 137.42 202.40 136.89 201.67 136.36 200.95 C 141.61 190.09 148.64 180.27 155.31 170.27 M 159.95 169.87 C 157.03 172.05 155.33 175.40 153.33 178.37 C 149.98 183.85 146.00 188.96 143.11 194.73 C 146.91 197.45 150.80 200.09 154.95 202.27 C 160.16 194.94 165.01 187.34 169.74 179.69 C 173.62 173.99 165.44 166.97 159.95 169.87 Z"/>
</g>
<g id="#050403ff">
<path fill="#050403" opacity="1.00" d=" M 308.98 309.02 C 312.25 302.76 314.68 296.11 317.99 289.88 C 317.59 297.61 314.84 304.95 311.77 311.97 C 311.23 313.50 309.66 314.17 308.45 315.07 C 308.40 314.50 308.31 313.36 308.26 312.79 C 309.15 312.71 310.04 312.64 310.94 312.56 C 313.17 307.26 315.72 301.96 316.40 296.18 C 312.65 300.23 311.64 305.96 308.76 310.60 C 307.75 309.56 306.74 308.53 305.73 307.50 C 306.81 308.00 307.89 308.51 308.98 309.02 Z"/>
<path fill="#050403" opacity="1.00" d=" M 294.99 293.02 C 298.19 296.31 300.95 300.28 300.63 305.10 C 298.51 301.19 296.52 297.20 294.99 293.02 Z"/>
<path fill="#050403" opacity="1.00" d=" M 324.07 305.22 C 324.32 304.97 324.57 304.72 324.83 304.47 C 325.69 304.92 326.55 305.36 327.42 305.81 C 326.64 307.29 325.88 308.77 325.10 310.25 C 324.82 308.56 324.44 306.89 324.07 305.22 Z"/>
<path fill="#050403" opacity="1.00" d=" M 303.61 320.48 C 304.89 318.41 305.86 316.18 307.09 314.09 C 306.16 316.67 304.99 319.16 303.76 321.62 C 300.75 321.21 297.71 320.89 294.73 320.32 C 297.69 320.16 300.69 320.94 303.61 320.48 Z"/>
<path fill="#050403" opacity="1.00" d=" M 330.41 321.81 C 332.34 324.84 334.10 329.21 331.30 332.29 C 328.25 335.20 323.86 333.30 320.82 331.43 C 323.99 332.40 327.95 334.58 330.90 331.90 C 333.64 328.94 331.34 325.01 330.41 321.81 Z"/>
<path fill="#050403" opacity="1.00" d=" M 291.77 330.89 C 292.31 327.28 294.21 324.08 297.58 322.48 C 294.99 324.79 293.06 327.67 291.77 330.89 Z"/>
<path fill="#050403" opacity="1.00" d=" M 314.17 338.94 C 317.48 338.26 314.09 343.24 313.32 340.12 C 313.53 339.83 313.96 339.23 314.17 338.94 Z"/>
</g>
<g id="#e9841cff">
<path fill="#e9841c" opacity="1.00" d=" M 69.95 182.29 C 74.89 182.05 79.83 182.05 84.77 182.31 C 85.39 187.19 85.37 192.12 84.79 197.00 C 79.82 197.64 74.81 197.56 69.83 197.12 C 69.41 192.18 69.39 187.21 69.95 182.29 M 72.31 184.99 C 72.33 188.17 72.37 191.36 72.46 194.55 C 75.65 194.68 78.84 194.74 82.03 194.74 C 82.32 191.43 82.36 188.11 82.19 184.79 C 78.90 184.58 75.59 184.62 72.31 184.99 Z"/>
</g>
<g id="#f1881eff">
<path fill="#f1881e" opacity="1.00" d=" M 90.38 182.32 C 95.27 182.10 100.17 182.09 105.06 182.29 C 105.62 187.22 105.59 192.19 105.18 197.13 C 100.25 197.55 95.28 197.63 90.37 196.98 C 90.18 192.09 90.19 187.20 90.38 182.32 M 92.85 184.83 C 92.66 188.12 92.69 191.42 93.00 194.69 C 96.22 194.73 99.44 194.73 102.65 194.67 C 102.67 191.43 102.67 188.19 102.65 184.96 C 99.40 184.58 96.11 184.56 92.85 184.83 Z"/>
</g>
<g id="#ee871dff">
<path fill="#ee871d" opacity="1.00" d=" M 110.97 182.26 C 115.88 182.12 120.79 182.13 125.70 182.31 C 125.86 187.22 125.86 192.14 125.73 197.05 C 120.79 197.59 115.81 197.55 110.86 197.17 C 110.51 192.20 110.50 187.22 110.97 182.26 M 113.66 184.74 C 113.50 187.95 113.50 191.17 113.63 194.38 C 116.84 194.54 120.05 194.52 123.26 194.33 C 123.39 191.15 123.39 187.97 123.23 184.80 C 120.04 184.64 116.85 184.62 113.66 184.74 Z"/>
</g>
<g id="#040303ff">
</g>
<g id="#d67d1aff">
<path fill="#d67d1a" opacity="1.00" d=" M 69.85 207.63 C 73.56 207.39 77.28 207.29 81.00 207.36 C 95.79 207.52 110.57 207.18 125.36 207.51 C 125.49 208.10 125.76 209.28 125.89 209.87 C 112.95 210.75 99.96 210.05 87.00 210.27 C 81.02 210.31 75.02 210.44 69.06 209.76 C 69.26 209.23 69.65 208.16 69.85 207.63 Z"/>
</g>
<g id="#f28e1fff">
<path fill="#f28e1f" opacity="1.00" d=" M 117.57 232.91 C 117.85 233.93 118.12 234.95 118.40 235.98 C 117.10 238.02 115.84 240.09 114.60 242.17 C 113.93 241.47 113.28 240.75 112.63 240.03 C 113.46 238.52 114.22 236.99 114.99 235.46 C 104.66 235.41 94.33 235.46 84.00 235.46 C 79.14 235.38 74.08 236.16 69.45 234.27 C 76.56 232.93 83.82 233.72 91.00 233.56 C 99.86 233.40 108.76 234.07 117.57 232.91 Z"/>
</g>
<g id="#cf7519ff">
<path fill="#cf7519" opacity="1.00" d=" M 70.00 259.13 C 82.65 258.59 95.33 259.05 108.00 258.90 C 114.00 258.88 120.01 258.74 126.00 259.19 C 125.80 259.75 125.41 260.87 125.22 261.43 C 106.91 261.85 88.58 261.46 70.26 261.62 C 70.19 261.00 70.06 259.76 70.00 259.13 Z"/>
</g>
<g id="#818181ff">
<path fill="#818181" opacity="1.00" d=" M 324.39 291.40 C 326.12 288.30 329.62 290.94 331.32 292.69 C 333.63 294.57 334.28 297.52 333.92 300.37 C 333.17 298.43 332.47 296.48 331.71 294.55 C 330.57 298.40 329.28 302.23 327.42 305.81 C 326.55 305.36 325.69 304.92 324.83 304.47 C 324.57 304.72 324.32 304.97 324.07 305.22 C 324.44 306.89 324.82 308.56 325.10 310.25 C 324.74 312.66 323.89 314.96 323.34 317.33 C 326.49 315.91 327.43 312.45 328.64 309.52 C 329.81 306.46 331.20 303.48 332.92 300.68 C 330.91 306.70 329.03 313.10 325.13 318.18 C 322.53 318.85 319.66 317.93 316.95 318.33 C 316.13 317.16 315.03 316.08 314.69 314.65 C 314.99 312.51 316.09 310.59 316.93 308.63 C 319.54 302.94 321.25 296.83 324.39 291.40 Z"/>
<path fill="#818181" opacity="1.00" d=" M 299.48 322.22 C 300.66 323.48 302.49 324.82 301.76 326.81 C 300.99 330.60 297.40 332.60 293.89 333.28 C 296.06 331.64 298.68 330.41 300.28 328.13 C 301.57 326.25 299.87 324.12 299.48 322.22 Z"/>
</g>
<g id="#000000ff">
<path fill="#000000" opacity="1.00" d=" M 166.21 303.24 C 170.68 303.53 175.98 302.17 179.78 305.17 C 182.67 307.99 180.95 312.13 178.79 314.80 C 181.94 317.02 183.61 321.62 180.65 324.74 C 176.70 328.16 170.95 326.74 166.17 326.95 C 166.17 319.04 166.12 311.14 166.21 303.24 M 169.93 306.56 C 169.92 308.81 169.92 311.07 169.93 313.32 C 172.52 313.30 175.10 312.95 177.57 312.12 C 177.40 310.45 177.23 308.80 177.05 307.14 C 174.69 306.86 172.31 306.67 169.93 306.56 M 169.87 316.59 C 169.93 319.00 170.00 321.42 170.11 323.83 C 172.39 323.61 174.80 323.80 176.96 322.92 C 178.58 321.99 178.71 319.83 178.13 318.25 C 176.00 316.01 172.62 316.78 169.87 316.59 Z"/>
<path fill="#000000" opacity="1.00" d=" M 227.24 303.23 C 228.42 303.20 229.60 303.18 230.79 303.16 C 230.86 305.69 230.92 308.21 230.97 310.74 C 233.45 310.26 236.15 309.08 238.60 310.29 C 245.02 313.38 244.74 324.71 237.83 327.04 C 234.29 327.33 230.74 326.53 227.18 326.83 C 227.16 318.96 227.10 311.09 227.24 303.23 M 231.38 313.39 C 230.74 316.76 230.74 320.23 231.38 323.61 C 233.51 323.65 236.09 324.55 237.85 322.87 C 240.03 320.55 240.02 316.45 237.82 314.15 C 236.07 312.50 233.51 313.36 231.38 313.39 Z"/>
<path fill="#000000" opacity="1.00" d=" M 302.15 306.26 C 305.49 306.70 300.34 309.04 302.15 306.26 Z"/>
<path fill="#000000" opacity="1.00" d=" M 188.62 310.65 C 192.60 309.15 198.54 308.77 200.97 313.00 C 202.20 317.53 201.40 322.34 201.57 326.98 C 199.53 326.73 197.46 325.95 195.41 326.49 C 193.11 326.85 190.63 327.94 188.38 326.80 C 185.34 325.61 184.45 321.08 186.83 318.85 C 189.74 315.96 194.20 316.37 197.95 315.87 C 197.79 315.26 197.45 314.04 197.29 313.42 C 193.90 312.94 190.54 313.64 187.16 313.73 C 186.31 312.34 187.10 310.95 188.62 310.65 M 189.28 321.23 C 188.39 324.20 192.73 324.44 194.64 323.70 C 196.83 323.34 197.57 321.21 198.12 319.37 C 195.18 319.56 191.45 318.69 189.28 321.23 Z"/>
<path fill="#000000" opacity="1.00" d=" M 205.95 310.02 C 208.42 310.02 210.89 310.02 213.36 310.04 C 213.38 311.21 213.39 312.39 213.39 313.57 C 214.84 312.22 216.20 310.61 218.13 309.94 C 220.05 309.51 222.03 309.86 223.97 309.95 C 223.58 311.12 223.20 312.30 222.81 313.48 C 220.23 313.68 217.12 313.09 215.07 315.04 C 213.15 317.18 213.76 320.25 213.68 322.87 C 214.91 323.32 216.14 323.77 217.37 324.22 C 217.36 324.90 217.33 326.26 217.32 326.93 C 213.53 327.04 209.74 327.04 205.95 326.94 C 205.99 326.22 206.06 324.77 206.09 324.05 C 207.32 323.82 208.54 323.59 209.78 323.38 C 209.85 320.13 209.85 316.88 209.77 313.64 C 208.54 313.42 207.32 313.21 206.10 312.99 C 206.06 312.25 205.99 310.76 205.95 310.02 Z"/>
<path fill="#000000" opacity="1.00" d=" M 248.13 323.90 C 243.90 318.54 247.85 309.28 255.00 309.65 C 260.76 309.08 264.59 314.64 264.51 319.91 C 259.74 320.00 254.96 319.89 250.18 320.13 C 251.08 321.43 251.62 323.31 253.38 323.69 C 256.23 324.52 259.06 323.14 261.77 322.38 C 262.19 323.25 262.61 324.12 263.04 325.00 C 258.64 328.12 251.64 328.56 248.13 323.90 M 249.87 316.53 C 253.35 316.70 256.84 316.71 260.33 316.51 C 259.28 314.93 258.10 313.04 255.94 313.07 C 253.26 312.56 251.43 314.74 249.87 316.53 Z"/>
<path fill="#000000" opacity="1.00" d=" M 266.95 310.02 C 269.42 310.02 271.89 310.02 274.36 310.04 C 274.37 311.21 274.38 312.39 274.39 313.57 C 275.84 312.22 277.20 310.61 279.13 309.94 C 281.05 309.52 283.03 309.86 284.97 309.94 C 284.58 311.12 284.20 312.30 283.81 313.48 C 281.23 313.68 278.13 313.09 276.07 315.04 C 274.15 317.18 274.76 320.24 274.68 322.86 C 275.91 323.32 277.14 323.77 278.37 324.23 C 278.36 324.90 278.33 326.26 278.32 326.93 C 274.53 327.04 270.74 327.04 266.96 326.94 C 266.99 326.22 267.06 324.77 267.09 324.04 C 268.32 323.82 269.54 323.59 270.78 323.38 C 270.85 320.13 270.85 316.88 270.77 313.63 C 269.54 313.42 268.32 313.21 267.10 312.99 C 267.06 312.25 266.99 310.76 266.95 310.02 Z"/>
<path fill="#000000" opacity="1.00" d=" M 313.28 316.26 C 313.78 316.79 313.78 316.79 313.28 316.26 Z"/>
</g>
<g id="#838383ff">
<path fill="#838383" opacity="1.00" d=" M 300.52 332.46 C 304.85 327.80 306.22 321.33 309.53 316.02 C 312.54 319.78 315.97 323.22 318.76 327.15 C 321.15 330.72 318.98 334.96 317.09 338.20 C 317.76 335.35 318.49 332.46 318.16 329.51 C 314.98 332.98 314.76 339.53 309.45 340.58 C 307.76 341.02 306.03 340.62 304.34 340.45 C 305.00 333.06 309.42 326.84 311.98 320.06 C 311.09 319.31 310.20 318.57 309.32 317.84 C 306.83 323.04 305.33 329.00 301.18 333.21 C 298.21 336.20 292.72 336.55 290.13 332.88 C 287.41 328.89 290.57 324.09 293.67 321.39 C 292.38 324.20 290.42 326.81 289.92 329.92 C 290.52 334.81 297.54 335.71 300.52 332.46 Z"/>
</g>
</svg>